<svg width="256" height="256" viewBox="0 0 256 256" xmlns="http://www.w3.org/2000/svg">
  <defs>
    <linearGradient id="gradient1" x1="0%" y1="0%" x2="100%" y2="100%">
      <stop offset="0%" style="stop-color:#4facfe;stop-opacity:1" />
      <stop offset="100%" style="stop-color:#00f2fe;stop-opacity:1" />
    </linearGradient>
    <linearGradient id="gradient2" x1="0%" y1="0%" x2="100%" y2="100%">
      <stop offset="0%" style="stop-color:#667eea;stop-opacity:1" />
      <stop offset="100%" style="stop-color:#764ba2;stop-opacity:1" />
    </linearGradient>
  </defs>
  
  <!-- Background circle -->
  <circle cx="128" cy="128" r="120" fill="url(#gradient1)" stroke="url(#gradient2)" stroke-width="4"/>
  
  <!-- Main icon - Computer/Desktop -->
  <rect x="64" y="80" width="128" height="80" rx="8" fill="white" opacity="0.9"/>
  <rect x="72" y="88" width="112" height="64" rx="4" fill="url(#gradient2)"/>
  
  <!-- Screen content - License key symbol -->
  <rect x="80" y="96" width="96" height="8" rx="2" fill="white" opacity="0.8"/>
  <rect x="80" y="108" width="72" height="6" rx="2" fill="white" opacity="0.6"/>
  <rect x="80" y="118" width="88" height="6" rx="2" fill="white" opacity="0.6"/>
  <rect x="80" y="128" width="64" height="6" rx="2" fill="white" opacity="0.6"/>
  
  <!-- Key icon -->
  <circle cx="160" cy="120" r="8" fill="#ffd700" stroke="white" stroke-width="2"/>
  <rect x="168" y="116" width="12" height="8" rx="2" fill="#ffd700"/>
  <rect x="176" y="118" width="4" height="2" fill="white"/>
  <rect x="176" y="122" width="4" height="2" fill="white"/>
  
  <!-- Desktop stand -->
  <rect x="112" y="160" width="32" height="8" rx="4" fill="url(#gradient2)"/>
  <rect x="96" y="168" width="64" height="12" rx="6" fill="url(#gradient1)"/>
  
  <!-- Omni text -->
  <text x="128" y="210" font-family="Arial, sans-serif" font-size="24" font-weight="bold" text-anchor="middle" fill="url(#gradient2)">OMNI</text>
  
  <!-- License indicator dots -->
  <circle cx="40" cy="128" r="6" fill="#28a745" opacity="0.8"/>
  <circle cx="216" cy="128" r="6" fill="#ffc107" opacity="0.8"/>
  <circle cx="128" cy="40" r="6" fill="#17a2b8" opacity="0.8"/>
  <circle cx="128" cy="216" r="6" fill="#dc3545" opacity="0.8"/>
</svg>