<svg width="192" height="192" viewBox="0 0 192 192" fill="none" xmlns="http://www.w3.org/2000/svg">
  <!-- Background -->
  <rect width="192" height="192" rx="24" fill="url(#gradient)"/>
  
  <!-- Main Icon -->
  <g transform="translate(32, 32)">
    <!-- Central Hub -->
    <circle cx="64" cy="64" r="20" fill="#ffffff" opacity="0.9"/>
    <circle cx="64" cy="64" r="12" fill="#2563eb"/>
    
    <!-- Connection Lines -->
    <line x1="64" y1="44" x2="64" y2="20" stroke="#ffffff" stroke-width="3" opacity="0.7"/>
    <line x1="84" y1="64" x2="108" y2="64" stroke="#ffffff" stroke-width="3" opacity="0.7"/>
    <line x1="64" y1="84" x2="64" y2="108" stroke="#ffffff" stroke-width="3" opacity="0.7"/>
    <line x1="44" y1="64" x2="20" y2="64" stroke="#ffffff" stroke-width="3" opacity="0.7"/>
    
    <!-- Diagonal connections -->
    <line x1="78" y1="50" x2="94" y2="34" stroke="#ffffff" stroke-width="2" opacity="0.5"/>
    <line x1="78" y1="78" x2="94" y2="94" stroke="#ffffff" stroke-width="2" opacity="0.5"/>
    <line x1="50" y1="78" x2="34" y2="94" stroke="#ffffff" stroke-width="2" opacity="0.5"/>
    <line x1="50" y1="50" x2="34" y2="34" stroke="#ffffff" stroke-width="2" opacity="0.5"/>
    
    <!-- Device Nodes -->
    <circle cx="64" cy="16" r="8" fill="#10b981"/>
    <circle cx="112" cy="64" r="8" fill="#f59e0b"/>
    <circle cx="64" cy="112" r="8" fill="#ef4444"/>
    <circle cx="16" cy="64" r="8" fill="#8b5cf6"/>
    
    <!-- Corner Devices -->
    <circle cx="96" cy="32" r="6" fill="#06b6d4"/>
    <circle cx="96" cy="96" r="6" fill="#ec4899"/>
    <circle cx="32" cy="96" r="6" fill="#84cc16"/>
    <circle cx="32" cy="32" r="6" fill="#f97316"/>
    
    <!-- Data Flow Animation Dots -->
    <circle cx="64" cy="30" r="2" fill="#ffffff" opacity="0.8">
      <animate attributeName="opacity" values="0.8;0.2;0.8" dur="2s" repeatCount="indefinite"/>
    </circle>
    <circle cx="98" cy="64" r="2" fill="#ffffff" opacity="0.8">
      <animate attributeName="opacity" values="0.2;0.8;0.2" dur="2s" repeatCount="indefinite"/>
    </circle>
    <circle cx="64" cy="98" r="2" fill="#ffffff" opacity="0.8">
      <animate attributeName="opacity" values="0.8;0.2;0.8" dur="2s" repeatCount="indefinite"/>
    </circle>
    <circle cx="30" cy="64" r="2" fill="#ffffff" opacity="0.8">
      <animate attributeName="opacity" values="0.2;0.8;0.2" dur="2s" repeatCount="indefinite"/>
    </circle>
  </g>
  
  <!-- Gradient Definition -->
  <defs>
    <linearGradient id="gradient" x1="0%" y1="0%" x2="100%" y2="100%">
      <stop offset="0%" style="stop-color:#1e40af;stop-opacity:1" />
      <stop offset="50%" style="stop-color:#2563eb;stop-opacity:1" />
      <stop offset="100%" style="stop-color:#3b82f6;stop-opacity:1" />
    </linearGradient>
  </defs>
</svg>